<svg width="1000" height="1000" viewBox="0 0 1000 1000" fill="none" xmlns="http://www.w3.org/2000/svg">
<path fill-rule="evenodd" clip-rule="evenodd" d="M500 0C223.857 0 0 223.858 0 500C0 776.142 223.857 1000 500 1000C776.143 1000 1000 776.142 1000 500C1000 223.858 776.143 0 500 0ZM433.029 826H575.879C577.703 818.872 578.637 815.328 580.695 808.24C563.938 808.24 558.758 796.126 565.156 771.9C613.459 590.633 661.658 409.366 709.754 228.1C716.203 203.848 726.744 191.722 741.377 191.722C743.203 184.633 744.135 181.089 746 174H464.652C462.975 179.101 461.922 182.367 460.607 186.438L458.902 191.722C461.77 191.683 464.561 192.639 466.805 194.428C469.051 196.216 470.609 198.728 471.217 201.537C473.354 208.041 472.615 216.921 469.043 228.1L295.229 771.9C292.381 781.933 287.033 791.073 279.689 798.463C274.248 804.335 266.734 807.843 258.75 808.24L255.779 817.401C254.945 819.967 254.104 822.568 253 826H395.811L401.055 808.278C397.797 808.559 394.537 807.752 391.783 805.984C389.029 804.216 386.936 801.586 385.826 798.502C383.262 792.011 383.664 783.169 387.031 771.978C437.717 603.694 488.428 435.423 539.166 267.165H616.865C569.053 435.423 521.256 603.694 473.471 771.978C466.607 796.178 454.836 808.278 438.156 808.278L433.029 826Z" fill="#191919"/>
</svg>
