<svg width="146" height="60" viewBox="0 0 146 60" fill="none" xmlns="http://www.w3.org/2000/svg">
<path fill-rule="evenodd" clip-rule="evenodd" d="M18.4155 1.3783C18.6844 0.55612 19.4514 0 20.3164 0H124.585C125.437 0 126.196 0.539839 126.475 1.3449L145.889 57.3449C146.339 58.6442 145.374 60 143.999 60H2.00149C0.641136 60 -0.322292 58.6713 0.100573 57.3783L18.4155 1.3783ZM41.4795 21.6637H38.0934C38.111 21.6018 38.1255 21.5514 38.1393 21.5037L38.141 21.4978L38.1413 21.4965C38.1635 21.4198 38.1839 21.3491 38.2124 21.2472C38.6074 21.2472 38.8843 20.9644 39.043 20.3988C40.1607 16.4687 41.2769 12.538 42.3918 8.6069H40.5464L36.9956 20.3988C36.9179 20.5965 36.9091 20.8148 36.9707 21.0181C36.9979 21.0908 37.0481 21.1525 37.1136 21.1939C37.1791 21.2352 37.2563 21.254 37.3334 21.2472C37.303 21.3478 37.2824 21.418 37.2597 21.4955L37.2361 21.5759L37.2102 21.6637H33.824L33.9625 21.2472C34.1505 21.2387 34.3278 21.157 34.4567 21.0195C34.6308 20.8478 34.7581 20.6341 34.8263 20.3988C36.1747 16.1678 37.5253 11.934 38.8783 7.69748C38.9576 7.50046 38.974 7.28363 38.9254 7.07685C38.9095 7.01033 38.8712 6.95136 38.8169 6.90988C38.7627 6.86839 38.6959 6.84694 38.6277 6.84915C38.6803 6.68253 38.708 6.60062 38.7662 6.43262H45.4581C45.4392 6.506 45.4243 6.56296 45.4099 6.61807C45.3917 6.68809 45.3741 6.75514 45.3501 6.84915C45.0013 6.84915 44.7521 7.13192 44.6026 7.69748L41.222 20.4002C41.0716 20.9667 41.1934 21.2495 41.5875 21.2486C41.5673 21.325 41.552 21.3845 41.5368 21.4435L41.5368 21.4436C41.5198 21.5099 41.5029 21.5755 41.4795 21.6637ZM48.5815 20.0884C49.7194 18.1724 50.2427 15.8509 50.658 13.7016L50.6823 13.5777C51.0333 11.7924 52.1721 6 49.2224 6C46.1889 6 44.9132 11.0281 44.2912 13.4793L44.229 13.7238C43.7182 15.7343 43.1534 17.9724 43.4414 20.0551C43.6255 21.3838 44.3592 22.078 45.5525 22.078C46.7458 22.078 47.7924 21.4074 48.5815 20.0884ZM49.2099 9.47247C49.1518 10.8928 48.8417 12.3451 48.5302 13.7336C48.4903 13.9119 48.4508 14.0909 48.4112 14.2702L48.4111 14.2703C48.0932 15.7091 47.7701 17.1712 47.2248 18.5181C46.8607 19.4275 46.4634 19.8913 46.0716 19.8913C45.6577 19.8913 45.4528 19.422 45.493 18.5028C45.5547 17.1053 45.8822 15.6994 46.2032 14.3211L46.2032 14.3211C46.2492 14.1232 46.2952 13.926 46.3402 13.7294C46.3748 13.5785 46.4132 13.4021 46.4557 13.2067L46.4564 13.2037L46.4565 13.2032C46.8218 11.5239 47.4904 8.45033 48.6936 8.17567C48.9774 8.11041 49.2459 8.6158 49.2099 9.47247ZM50.859 19.488C51.2743 19.3867 51.6896 18.9438 52.0302 18.1801C52.6628 16.7681 52.9563 15.1464 53.218 13.5983C53.564 11.6295 53.9097 9.66118 54.2548 7.69331C54.3048 7.48802 54.2883 7.27212 54.2078 7.07685C54.1798 7.00969 54.1327 6.95228 54.0724 6.91179C54.0121 6.8713 53.9412 6.84951 53.8686 6.84915C53.8914 6.71862 53.9057 6.64007 53.9254 6.53139L53.9434 6.43262H59.8961C59.8864 6.5099 59.8789 6.56895 59.8715 6.62683L59.8713 6.62843L59.8708 6.63245L59.8704 6.63551C59.8622 6.69944 59.8541 6.76296 59.8435 6.84915C59.4965 6.84915 59.286 7.13239 59.2122 7.69887C58.7055 11.6281 58.1979 15.5578 57.6894 19.488H58.4328C58.6762 19.5051 58.9187 19.4438 59.125 19.3131C59.0655 20.7932 59.0364 21.5346 58.9865 23.0119L58.4328 23.0771C58.463 22.7219 58.3754 22.3666 58.1836 22.0663C58.0037 21.8123 57.7116 21.6776 57.3046 21.6637H51.2813C50.9074 21.6628 50.5477 21.8071 50.2776 22.0663C50.004 22.3474 49.8096 22.6962 49.7142 23.0771L49.1812 23.0119C49.5854 21.5332 49.7862 20.7904 50.1848 19.3131C50.3039 19.4297 50.5171 19.488 50.823 19.488H50.859ZM55.2073 14.0051C54.9179 15.8628 54.5151 17.815 53.6734 19.5102H55.5271C56.0614 15.8763 56.5967 12.2427 57.1329 8.60968H56.0559C55.7735 10.4091 55.4906 12.2076 55.2073 14.0051ZM64.5313 20.6511C65.229 19.7916 65.6111 18.6795 65.6969 17.3189C65.762 16.29 65.6595 15.4542 65.384 14.8169C65.1085 14.1796 64.7389 13.7825 64.2682 13.6437V13.5784C64.6559 13.3604 65.0227 12.9397 65.3647 12.3149C65.7244 11.6193 65.9272 10.8529 65.9585 10.0699C66.0361 8.87164 65.8284 7.90946 65.3508 7.20552C64.8732 6.50159 64.3112 6.14893 63.6522 6.14893C63.3403 6.15374 63.0295 6.18626 62.7233 6.24612C62.3661 6.31137 62.1599 6.34469 62.1087 6.34469C61.9592 6.35879 61.809 6.32836 61.6767 6.25722C61.4137 7.45405 61.2753 8.05802 60.9984 9.25901L61.3403 9.38952C61.6643 8.68004 62.1599 8.32321 62.8327 8.32321C63.751 8.32413 64.1543 9.01326 64.0426 10.3906C63.972 11.2459 63.7976 11.8554 63.511 12.2178C63.2244 12.5801 62.8908 12.762 62.5129 12.762H61.9979C61.9618 13.1299 61.9345 13.4072 61.9072 13.683L61.9063 13.6929L61.9057 13.6987C61.8781 13.9786 61.8504 14.2587 61.8138 14.6322H62.2886C62.6956 14.6322 63.0431 14.8349 63.3324 15.2418C63.6218 15.6486 63.7311 16.3233 63.655 17.2661C63.5184 18.9628 62.859 19.8111 61.6767 19.8111C60.8 19.8102 60.2762 19.4621 60.1055 18.767L59.7234 18.8753C59.7387 20.0499 59.7483 20.6372 59.7719 21.8118C59.9417 21.7485 60.1224 21.7193 60.3035 21.7257C60.3764 21.7257 60.6376 21.7618 61.087 21.834C61.4474 21.8979 61.812 21.9341 62.1779 21.9423C63.0403 21.9423 63.8336 21.5105 64.5313 20.6511ZM72.3427 18.8355C72.1669 20.0365 72.0769 20.6404 71.8928 21.8373C71.7613 21.7206 71.4858 21.6637 71.0622 21.6637H66.181L66.2045 21.2472C66.2898 21.2459 66.3737 21.2246 66.4492 21.1848C66.5247 21.145 66.5898 21.0879 66.6392 21.0181C66.7696 20.838 66.8403 20.6214 66.8413 20.3988L67.4975 7.69609C67.5266 7.14072 67.366 6.86303 67.0185 6.86303L67.0421 6.4465H71.0747C71.526 6.4465 71.8153 6.38865 71.9427 6.27295C72.1005 7.45589 72.1822 8.04736 72.3483 9.2317L71.9911 9.38303C71.8527 8.87626 71.6298 8.62217 71.3072 8.62217H69.3941C69.3698 9.33999 69.3518 9.87836 69.3338 10.4167C69.3158 10.9551 69.2979 11.4934 69.2736 12.2113H71.0013C71.0868 12.2119 71.1713 12.1927 71.2481 12.1551C71.325 12.1175 71.3921 12.0626 71.4443 11.9947C71.5632 11.8464 71.6273 11.6615 71.6256 11.4712H71.9551L71.9548 11.5037L71.9546 11.5326C71.9411 12.954 71.9341 13.6856 71.9191 15.127H71.5786C71.5864 14.9407 71.5324 14.7571 71.4249 14.6049C71.3702 14.5344 71.2991 14.4785 71.2177 14.4421C71.1363 14.4058 71.0472 14.3902 70.9584 14.3967H69.2141L69.0438 19.488H71.0968C71.4863 19.488 71.7835 19.227 71.9883 18.705L72.3427 18.8355ZM79.0803 21.6634H82.4664C82.4561 21.526 82.4495 21.4424 82.4405 21.3264L82.4346 21.251C82.3471 21.2511 82.2608 21.2304 82.1829 21.1905C82.1049 21.1507 82.0375 21.0929 81.9861 21.0219C81.8578 20.8405 81.786 20.625 81.7798 20.4027C81.4697 16.1754 81.1605 11.9476 80.8523 7.71937C80.8271 7.51025 80.8637 7.29832 80.9575 7.10985C80.9882 7.04018 81.0381 6.98079 81.1014 6.93871C81.1647 6.89664 81.2387 6.87363 81.3146 6.87243L81.2828 6.4559H78.6871C78.7107 6.87142 78.68 7.28825 78.5958 7.69577C78.2571 9.5646 77.8967 11.4283 77.5146 13.287H77.4634C76.8875 11.3709 76.331 9.44843 75.7938 7.51944C75.7045 7.17099 75.658 6.81289 75.6554 6.45312H73.0611V6.86965C73.41 6.86965 73.5872 7.15151 73.5872 7.71799L73.6509 20.3999C73.6642 20.619 73.6059 20.8364 73.4848 21.0192C73.4385 21.0891 73.3758 21.1466 73.3021 21.1865C73.2285 21.2265 73.1462 21.2477 73.0625 21.2482V21.6648H76.3241C76.3225 21.6031 76.3206 21.5528 76.3189 21.5057L76.3188 21.5052L76.3188 21.5047L76.3188 21.5042L76.3188 21.5037L76.3187 21.5032C76.3157 21.423 76.313 21.3517 76.313 21.2482C76.2298 21.2482 76.1478 21.2284 76.0737 21.1905C75.9996 21.1527 75.9355 21.0977 75.8866 21.0303C75.757 20.8465 75.6918 20.6248 75.7011 20.3999C75.643 17.7739 75.5844 15.1489 75.5253 12.5247H75.5571C76.1109 14.4954 76.6817 16.4605 77.2696 18.42H77.9354C78.3535 16.4586 78.7545 14.4935 79.1384 12.5247H79.1717C79.3166 15.1498 79.4638 17.7744 79.6133 20.3985C79.6375 20.6147 79.5888 20.8327 79.4748 21.0178C79.4313 21.0887 79.3701 21.1471 79.2973 21.1873C79.2245 21.2274 79.1426 21.2479 79.0595 21.2469L79.0803 21.6634ZM89.0371 18.8355C89.0371 19.8412 89.0294 20.4283 89.0179 21.2954L89.0108 21.8373C88.8627 21.7206 88.5803 21.6637 88.1594 21.6637H83.2768L83.2422 21.2472C83.3233 21.2479 83.4032 21.2271 83.4737 21.1869C83.5443 21.1466 83.6029 21.0884 83.6437 21.0181C83.751 20.8308 83.7915 20.6124 83.7586 20.3988C83.3784 16.1678 82.9981 11.9336 82.6179 7.69609C82.5694 7.14072 82.3701 6.86303 82.0226 6.86303L81.988 6.4465H86.0192C86.4705 6.4465 86.7529 6.38819 86.8637 6.27295C87.1876 7.45589 87.3524 8.04736 87.6943 9.2317L87.3593 9.38303C87.1516 8.87626 86.8886 8.62217 86.5674 8.62217H84.6473L84.6474 8.62233L84.6518 8.66348C84.8039 10.0717 84.8814 10.7895 85.0336 12.2113H86.7612C86.8433 12.2148 86.9249 12.1966 86.9977 12.1586C87.0706 12.1206 87.1323 12.0641 87.1766 11.9947C87.2765 11.8399 87.3145 11.6529 87.2831 11.4712H87.614C87.7107 12.2058 87.7833 12.756 87.8559 13.3071L87.8624 13.3562L87.8704 13.4168C87.9377 13.9269 88.0064 14.4482 88.0958 15.127H87.7538C87.7319 14.9338 87.6523 14.7518 87.5254 14.6049C87.4648 14.5339 87.389 14.4775 87.3037 14.4397C87.2184 14.402 87.1258 14.384 87.0326 14.3869H85.2883L85.842 19.4783H87.8867C88.2771 19.4783 88.5374 19.2173 88.6675 18.6952L89.0371 18.8355ZM94.4904 21.6637H97.5097L97.4266 21.2472C97.1276 21.2472 96.9019 21.0334 96.7635 20.6168C96.5586 20.0068 96.297 19.2015 95.9786 18.201C95.4821 16.6468 94.9929 15.0913 94.5112 13.5344C93.9759 11.8035 93.448 10.0703 92.9275 8.33477C92.6611 7.44483 92.4902 6.86867 92.4126 6.60669L92.4099 6.59776L92.4099 6.59767L92.4098 6.59744C92.3713 6.46746 92.3571 6.41944 92.3668 6.45344H89.958C90.1417 11.1602 90.2598 15.8739 90.3124 20.5946C90.3152 21.0296 90.1606 21.2472 89.8487 21.2472L89.869 21.3912L89.8692 21.3927L89.8698 21.3969L89.8701 21.3986L89.8706 21.4026L89.8707 21.4033C89.8824 21.4857 89.8926 21.5579 89.9068 21.6637H93.1213L93.0521 21.2472C92.9876 21.2527 92.9227 21.2451 92.8612 21.2249C92.7997 21.2048 92.7428 21.1725 92.694 21.1299C92.6452 21.0872 92.6054 21.0352 92.5771 20.9769C92.5487 20.9186 92.5323 20.8552 92.5288 20.7904C92.5149 20.7029 92.4969 20.5155 92.4734 20.2253C92.2427 16.7357 91.9889 13.2475 91.712 9.76068H91.7937C92.7147 13.2262 93.6598 16.6853 94.6288 20.1378C94.6953 20.3697 94.741 20.5641 94.7673 20.7029C94.8323 21.0667 94.716 21.2472 94.417 21.2472L94.4904 21.6637ZM100.543 21.7715C99.6653 21.7715 98.7728 21.728 97.8656 21.641L97.8448 21.5381L97.8293 21.4627L97.8061 21.3492L97.7943 21.2907L97.7812 21.2245C98.1762 21.2245 98.3095 20.92 98.1812 20.3109C97.298 16.1123 96.4144 11.9137 95.5302 7.71506C95.4926 7.48776 95.3973 7.27402 95.2533 7.09443C95.2048 7.02847 95.1425 6.97392 95.0708 6.93459C94.999 6.89527 94.9196 6.8721 94.838 6.86672C94.8155 6.75925 94.8006 6.68644 94.7834 6.60243L94.7522 6.4502H97.7452L97.7521 6.47948C97.7864 6.62572 97.8056 6.70765 97.8407 6.86672C97.7659 6.86186 97.6914 6.88123 97.6284 6.92197C97.5653 6.96271 97.517 7.02268 97.4905 7.09304C97.4231 7.29294 97.4197 7.50896 97.4808 7.71089C97.8077 9.14268 97.9724 9.86187 98.2995 11.2898L98.3031 11.3055C98.3945 11.2901 98.4872 11.2831 98.5799 11.2847C101.259 11.275 102.601 14.3629 103.074 16.4955L103.097 16.6015C103.359 17.8008 103.682 19.2727 103.083 20.4525C102.636 21.3272 101.769 21.7715 100.543 21.7715ZM99.0589 13.4604C98.9707 13.4587 98.8826 13.4662 98.7959 13.4826C99.2573 15.5143 99.7216 17.5447 100.189 19.5736C100.284 19.5894 100.38 19.5969 100.477 19.5959C100.842 19.5959 101.075 19.3376 101.169 18.8211C101.263 18.3046 101.184 17.5368 100.939 16.5177C100.446 14.4795 99.8194 13.4604 99.0589 13.4604ZM104.957 21.1934C104.895 21.2296 104.824 21.2491 104.751 21.2501C104.776 21.3418 104.794 21.4097 104.813 21.4816L104.835 21.5682C104.843 21.5976 104.851 21.629 104.861 21.6639H107.653C107.617 20.953 107.505 19.9589 107.308 18.6829C107.112 17.4074 106.914 16.3342 106.714 15.4632H107.57L109.057 20.4101C109.13 20.6054 109.138 20.8195 109.079 21.0197C109.054 21.0942 109.005 21.1583 108.94 21.2016C108.875 21.2449 108.797 21.2649 108.719 21.2585C108.753 21.3727 108.775 21.4477 108.801 21.536L108.842 21.675H112.228C112.17 21.507 112.142 21.4237 112.09 21.2585C111.901 21.2497 111.723 21.1675 111.594 21.0294C111.42 20.8583 111.293 20.645 111.226 20.4101L107.168 7.7046C106.993 7.14923 107.079 6.87155 107.426 6.87155C107.368 6.70355 107.34 6.62024 107.287 6.45502C106.378 6.33978 105.412 6.30645 104.463 6.28146C101.927 6.21343 101.879 9.07915 102.387 10.8494C102.784 12.2351 103.404 13.9359 104.75 14.7439C105.033 16.6758 105.2 18.6232 105.248 20.5754C105.251 20.7418 105.202 20.9051 105.11 21.0433C105.072 21.1055 105.02 21.1572 104.957 21.1934ZM106.932 13.3527C106.8 13.3707 106.667 13.3781 106.534 13.375C105.63 13.374 104.939 12.54 104.46 10.873C104.001 9.26242 104.204 8.45713 105.071 8.45713C105.202 8.45155 105.333 8.45899 105.463 8.47935C105.952 10.1038 106.441 11.7283 106.932 13.3527ZM25.7045 50.8546H20.6142L20.797 50.2229C21.3913 50.2229 21.8108 49.7916 22.0553 48.9289C23.7581 42.9299 25.4613 36.9314 27.165 30.9334H24.3963C22.5883 36.9314 20.7813 42.9299 18.9752 48.9289C18.8552 49.3278 18.8409 49.643 18.9322 49.8744C18.9718 49.9843 19.0464 50.0781 19.1445 50.1411C19.2427 50.2041 19.3588 50.2329 19.4749 50.2229L19.288 50.8546H14.1991C14.2481 50.7023 14.2826 50.5959 14.32 50.4807L14.3208 50.4784L14.3208 50.4784L14.404 50.2215C14.6885 50.2074 14.9563 50.0823 15.1502 49.873C15.4119 49.6096 15.6024 49.2837 15.7039 48.9261L21.8975 29.5408C22.0249 29.1424 22.0512 28.8258 21.975 28.5939C21.9533 28.4938 21.8978 28.4043 21.8178 28.3405C21.7379 28.2767 21.6384 28.2427 21.5362 28.244L21.5945 28.0633L21.5947 28.0629C21.6425 27.9144 21.6803 27.7971 21.7411 27.6123H31.7666C31.7001 27.865 31.6669 27.9913 31.6018 28.244C31.0804 28.244 30.7048 28.6763 30.475 29.5408C28.7611 36.0026 27.0436 42.4643 25.3224 48.9261C25.0944 49.7897 25.279 50.2215 25.8761 50.2215C25.8028 50.4742 25.7695 50.6006 25.7045 50.8546ZM35.4218 51.1234C35.9534 49.5971 36.4809 48.0698 37.0041 46.5416L36.5141 46.3375C36.0489 47.1345 35.5238 47.533 34.9387 47.533H31.8557C32.4565 44.9459 33.0564 42.3564 33.6554 39.7647H36.2732C36.5768 39.7647 36.7863 39.8753 36.9017 40.0965C37.0196 40.345 37.0461 40.6273 36.9764 40.8935H37.4873C37.873 39.033 38.2584 37.1734 38.6432 35.3148H38.149C38.0882 35.6173 37.9388 35.8948 37.7198 36.1117C37.6267 36.2137 37.5139 36.2957 37.3883 36.3527C37.2626 36.4098 37.1268 36.4407 36.9889 36.4436H34.3974L35.6641 30.9648H38.5338C39.017 30.9648 39.28 31.3536 39.3298 32.1269L39.9113 31.8951C40.0017 30.39 40.0963 28.8849 40.1951 27.3799C39.9694 27.5576 39.5181 27.6451 38.8412 27.6451H32.7971C32.732 27.8978 32.7002 28.0241 32.6365 28.2768C33.157 28.2777 33.313 28.698 33.1044 29.5375L28.2689 48.9283C28.193 49.2822 28.0232 49.6089 27.7774 49.8739C27.6875 49.9792 27.577 50.0649 27.4527 50.1255C27.3284 50.1862 27.1929 50.2206 27.0548 50.2265C26.9897 50.4792 26.9579 50.6056 26.8942 50.8582H34.2313C34.8681 50.8582 35.2599 50.9457 35.4218 51.1234ZM38.8488 47.5335C39.4814 47.3794 40.0947 46.7005 40.6249 45.5383C41.5071 43.5653 41.9304 41.3495 42.3428 39.1904C42.3834 38.9778 42.4239 38.7658 42.4647 38.5545L44.0941 29.5422C44.1661 29.1424 44.1426 28.8258 44.0276 28.5939C43.9872 28.4921 43.9177 28.4046 43.8278 28.3423C43.7379 28.2801 43.6316 28.2459 43.5224 28.244L43.64 27.6123H52.5622C52.5455 27.7388 52.5334 27.8336 52.5213 27.9285L52.5212 27.9288L52.5009 28.0874L52.4805 28.244C51.9591 28.244 51.6402 28.6768 51.5239 29.5422C50.7182 35.5393 49.913 41.5364 49.1082 47.5335H50.224C50.685 47.5335 51.0325 47.446 51.2664 47.2683C51.1741 49.1501 51.0901 51.0314 51.0145 52.9123L50.1839 53.0123C50.2088 52.3699 50.0874 51.8552 49.8198 51.4683C49.5521 51.0814 49.1133 50.8769 48.5033 50.8546H39.4565C38.8922 50.8544 38.35 51.0745 37.9448 51.4683C37.5284 51.8986 37.232 52.431 37.0851 53.0123L36.2836 52.9123C36.805 51.0324 37.3232 49.151 37.8382 47.2683C38.0154 47.446 38.3352 47.5335 38.7962 47.5335H38.8488ZM45.4438 39.1668L45.3968 39.4245C44.894 42.1781 44.368 45.0585 43.078 47.5668H45.8605C46.7068 42.0224 47.5522 36.4779 48.3967 30.9334H46.7825C46.3367 33.677 45.8905 36.4214 45.4438 39.1668ZM60.6533 28.6434C60.7835 28.9344 60.8313 29.2557 60.7917 29.5722C60.7599 29.9971 60.7433 30.2095 60.7059 30.6344C60.6475 31.1611 60.5103 31.676 60.2989 32.1617C59.2117 34.8293 58.0955 37.4858 56.9501 40.1313H56.8726C57.2049 36.6093 57.538 33.0896 57.8721 29.5722C57.8887 29.234 57.9979 28.9068 58.1877 28.6267C58.2534 28.5224 58.3438 28.4361 58.4508 28.3753C58.5578 28.3145 58.6781 28.2811 58.801 28.2782L58.8564 27.6465H54.5843C54.5691 27.7728 54.558 27.8676 54.5469 27.9624L54.5466 27.9647C54.5356 28.0587 54.5246 28.1529 54.5095 28.2782C54.6233 28.2817 54.7337 28.318 54.8275 28.3827C54.9213 28.4475 54.9945 28.538 55.0383 28.6434C55.1783 28.9314 55.2266 29.2557 55.1768 29.5722C54.4569 36.0238 53.7375 42.4763 53.0186 48.9297C52.9217 49.7924 52.6397 50.2238 52.1727 50.2238C52.1582 50.3501 52.1471 50.4449 52.1361 50.5396C52.125 50.6344 52.1139 50.7291 52.0994 50.8555H56.7826C56.806 50.6049 56.817 50.4786 56.8389 50.23L56.839 50.2278L56.8393 50.225L56.8394 50.2238C56.7148 50.2283 56.5914 50.1982 56.4829 50.1367C56.3744 50.0751 56.2851 49.9847 56.2247 49.8753C56.0742 49.5846 56.0204 49.2533 56.0711 48.9297C56.0898 48.7318 56.1043 48.5799 56.1185 48.4311C56.1348 48.2605 56.1507 48.0938 56.1721 47.8662C57.4863 44.9718 58.7659 42.0612 60.0109 39.1344H60.0608L59.3132 48.9297C59.2995 49.2632 59.1904 49.5856 58.999 49.8586C58.9252 49.9707 58.8248 50.0626 58.707 50.1264C58.5891 50.1901 58.4573 50.2235 58.3234 50.2238L58.3126 50.356L58.2977 50.5405C58.2901 50.635 58.2825 50.7295 58.2722 50.8555H63.1451L63.1797 50.2238C63.0536 50.2276 62.9288 50.1972 62.8184 50.1359C62.7081 50.0745 62.6163 49.9845 62.5526 49.8753C62.3925 49.5877 62.3271 49.2568 62.3657 48.9297L63.5203 29.5722C63.5245 29.2386 63.6177 28.9121 63.7902 28.6267C63.85 28.5223 63.9357 28.4353 64.0391 28.3742C64.1425 28.3131 64.26 28.2801 64.38 28.2782C64.3924 28.0255 64.3993 27.8992 64.4132 27.6465H60.1632C60.149 27.8314 60.1393 27.9486 60.127 28.0972L60.1269 28.0979L60.112 28.2782C60.2283 28.2778 60.342 28.3124 60.4385 28.3775C60.535 28.4426 60.6098 28.5352 60.6533 28.6434ZM75.8421 50.8555H70.7533L70.7602 50.2238C71.3545 50.2238 71.6549 49.7924 71.6614 48.9297C71.6836 45.8752 71.7066 42.8206 71.7306 39.7661H68.8069C68.7321 42.8206 68.6569 45.8752 68.5812 48.9297C68.5537 49.2601 68.6302 49.5908 68.7999 49.8753C68.8667 49.9842 68.9607 50.0737 69.0727 50.1349C69.1847 50.196 69.3107 50.2267 69.4381 50.2238L69.4257 50.8555H64.3368C64.3449 50.6711 64.3508 50.554 64.3582 50.406L64.3583 50.4045L64.3673 50.2238C64.4953 50.2215 64.6209 50.1887 64.7338 50.1281C64.8467 50.0675 64.9436 49.9808 65.0165 49.8753C65.2116 49.599 65.3152 49.2683 65.3128 48.9297L66.1434 29.5722C66.1749 29.2457 66.1104 28.917 65.9579 28.6267C65.9083 28.5244 65.8316 28.4377 65.7361 28.3762C65.6406 28.3147 65.53 28.2808 65.4166 28.2782C65.4228 28.1519 65.4273 28.0571 65.4318 27.9624L65.4367 27.8597L65.4471 27.6465H69.8853C69.8853 27.8173 69.8821 27.9304 69.8783 28.0642V28.0643V28.0645L69.8782 28.0672L69.8755 28.1637L69.8728 28.2754C69.7545 28.2764 69.6385 28.309 69.537 28.3701C69.4355 28.4311 69.3521 28.5183 69.2955 28.6226C69.1327 28.9094 69.0508 29.2353 69.0588 29.5653L68.8885 36.445H71.7542L71.8068 29.5653C71.8141 28.7045 71.5567 28.2745 71.0343 28.2754C71.0343 28.0241 71.0343 27.8978 71.0426 27.6465H75.4808C75.4808 27.7937 75.4832 27.8981 75.4857 28.0095V28.01V28.0103V28.0105V28.0107V28.0108C75.4875 28.0902 75.4894 28.1733 75.4905 28.2782C74.97 28.2782 74.7139 28.7096 74.7222 29.5722C74.7914 36.0247 74.8597 42.4772 74.9271 48.9297C74.9363 49.7924 75.2376 50.2238 75.8311 50.2238C75.8366 50.4764 75.8394 50.6028 75.8421 50.8555ZM77.1017 28.6404C77.2718 28.932 77.3589 29.2648 77.3537 29.6026C77.5262 36.0023 77.6961 42.4002 77.8631 48.7962C77.8889 49.7478 77.6051 50.2235 77.0117 50.2235L77.0256 50.8553C78.3504 50.9927 79.7223 51.0455 81.0402 51.0538C82.6696 51.0649 84.3363 50.4165 85.2514 49.0281C86.3796 47.3245 86.4848 44.9322 86.327 42.9523C86.0737 39.7159 84.9717 34.9772 80.928 34.9508C80.7889 34.9484 80.6498 34.9596 80.5127 34.9841C80.4537 33.6883 80.3951 32.3924 80.3369 31.0965H83.3216C83.921 31.0965 84.3682 31.5061 84.6713 32.3253L85.1392 32.092C84.7904 30.5342 84.4466 28.9741 84.1079 27.4116C83.9445 27.5671 83.5099 27.6435 82.8011 27.6435H76.5217L76.5355 28.2752C76.7556 28.2752 76.9453 28.396 77.1017 28.6404ZM80.6567 38.3039C80.7903 38.2745 80.9272 38.2633 81.0637 38.2705C82.8052 38.3997 83.0309 41.5889 83.0876 42.9523C83.1665 44.5143 83.0849 45.7028 82.7983 46.4887C82.5117 47.2745 82.0784 47.6674 81.5039 47.6674C81.3593 47.6688 81.2148 47.6577 81.072 47.6341L80.6567 38.3039ZM91.4802 42.3888C90.0488 38.0384 88.6759 33.6667 87.3617 29.2737C87.1772 28.6101 86.8786 28.2782 86.4661 28.2782L86.4526 28.1152L86.4398 27.9624C86.4318 27.8676 86.4238 27.7728 86.4135 27.6465H90.8046C90.8185 27.7728 90.8292 27.8676 90.8399 27.9624L90.8609 28.1484L90.8752 28.2782C90.4959 28.2782 90.3293 28.4883 90.3755 28.9086C90.4224 29.2219 90.488 29.532 90.572 29.8374C91.2596 32.444 91.9624 35.045 92.6804 37.6404H92.7303C92.8715 34.9561 92.9947 32.2667 93.0999 29.5722V28.9752C93.0417 28.5124 92.7995 28.281 92.3731 28.281C92.3426 28.0283 92.3274 27.902 92.2956 27.6493H96.3337L96.3549 27.7927L96.3799 27.964C96.3938 28.0591 96.4077 28.1541 96.4265 28.281C96.0624 28.281 95.863 28.5906 95.8243 29.2099C95.4893 33.6093 95.091 38.0023 94.6296 42.3888C94.4205 44.3049 94.1935 46.2195 93.9595 48.1328C93.7976 49.7378 92.5974 51.204 91.0663 51.2206C90.4759 51.2025 89.8966 51.0551 89.369 50.7888C88.7746 50.5188 88.2052 50.1964 87.6677 49.8253C87.9935 48.534 88.3096 47.2382 88.616 45.9377C88.6809 45.9647 88.7362 45.9879 88.7877 46.0095L88.8723 46.0451L89.0167 46.1058C89.0426 46.1166 89.0698 46.128 89.0989 46.1401C89.1213 46.1494 89.1448 46.1592 89.1697 46.1695C89.163 46.3024 89.1662 46.4356 89.1794 46.568C89.2052 46.8537 89.3033 47.128 89.4646 47.365C89.5315 47.4781 89.6221 47.5753 89.7301 47.6499C89.8381 47.7244 89.961 47.7746 90.0903 47.7968C90.2395 47.8139 90.3899 47.7762 90.5136 47.6907C90.6373 47.6052 90.7259 47.4776 90.7631 47.3317C90.8257 47.1591 90.872 46.9811 90.9015 46.7999C91.1018 45.3318 91.2947 43.8615 91.4802 42.3888ZM104.234 43.4173C108.491 43.3965 108.257 38.4953 107.543 35.4824C107.032 33.3234 106.388 31.1866 104.933 29.4608C103.898 28.2376 102.4 27.4531 100.78 27.4531C99.632 27.4549 98.4849 27.5212 97.3442 27.6517L97.4411 28.2834C97.9625 28.2834 98.2971 28.7462 98.4448 29.6718C99.4655 36.0901 100.483 42.5093 101.499 48.9294C101.563 49.3283 101.528 49.6435 101.393 49.8749C101.339 49.9815 101.256 50.0707 101.154 50.1324C101.052 50.194 100.934 50.2255 100.815 50.2234L100.912 50.8551H106.048C106.025 50.7288 106.007 50.634 105.99 50.5393C105.973 50.4445 105.956 50.3497 105.933 50.2234C105.79 50.2232 105.649 50.1919 105.519 50.1317C105.39 50.0716 105.275 49.9839 105.182 49.8749C104.957 49.6059 104.813 49.2778 104.767 48.9294L103.787 43.384C103.935 43.408 104.084 43.4191 104.234 43.4173ZM103.351 31.9461C103.793 32.7319 104.201 33.9218 104.458 35.4491L104.483 35.5916C104.696 36.7919 105.258 39.9671 103.614 40.0976C103.475 40.106 103.335 40.0948 103.199 40.0642C102.654 36.9773 102.108 33.8894 101.56 30.8006C101.685 30.7769 101.812 30.7657 101.939 30.7673C102.436 30.7673 102.909 31.1602 103.351 31.9461ZM115.799 32.2949C115.341 31.4757 114.83 31.0661 114.246 31.0661H111.304C112.714 37.0216 114.124 42.9761 115.533 48.9297C115.611 49.2744 115.784 49.5904 116.031 49.8419C116.281 50.0964 116.531 50.2237 116.783 50.2237L116.935 50.8554H111.795C111.741 50.6027 111.714 50.4764 111.657 50.2237C112.249 50.2237 112.451 49.7924 112.263 48.9297L108.034 29.5722C107.972 29.2256 107.823 28.9003 107.602 28.6266C107.529 28.5254 107.434 28.4416 107.325 28.3813C107.215 28.3211 107.094 28.2858 106.969 28.2782L106.831 27.6464H113.061C113.753 27.6464 114.168 27.5701 114.298 27.4146C114.937 28.9659 115.579 30.5154 116.225 32.063L115.799 32.2949ZM127.146 50.8553H131.852L131.648 50.2291C131.198 50.2291 130.823 49.8973 130.521 49.2336C127.655 42.7552 124.856 36.2476 122.125 29.7109C121.975 29.3124 121.882 29.0583 121.848 28.9473C121.713 28.5048 121.796 28.2836 122.096 28.2836C122.017 28.0315 121.978 27.9052 121.901 27.6538L121.9 27.6519H116.726C116.796 27.9046 116.831 28.0309 116.9 28.2836C117.184 28.2836 117.392 28.515 117.522 28.9778C117.583 29.2064 117.632 29.4381 117.668 29.672C118.744 36.2004 119.743 42.7413 120.666 49.2947C120.738 49.914 120.578 50.2236 120.184 50.2236L120.347 50.8553H124.817L124.637 50.2236C124.206 50.2236 123.925 49.9922 123.793 49.5294C123.706 49.217 123.566 48.4311 123.368 47.169C123.906 47.4228 124.496 47.5477 125.091 47.5342C125.712 47.5351 126.181 47.4134 126.496 47.169C126.837 47.9394 127.136 48.7273 127.393 49.5294C127.535 49.9922 127.389 50.2236 126.957 50.2236L126.958 50.2242C127.032 50.4765 127.07 50.6028 127.146 50.8553ZM120.517 31.7297C122.037 35.7182 123.576 39.7025 125.133 43.6827C124.895 43.927 124.547 44.0423 124.096 44.0478C123.618 44.0602 123.148 43.9333 122.741 43.6827C121.965 39.6942 121.167 35.7098 120.348 31.7297H120.517Z" fill="white"/>
</svg>
