<svg width="679" height="69" viewBox="0 0 679 69" fill="none" xmlns="http://www.w3.org/2000/svg">
<path d="M0.515625 33.6855V34.9395C0.515625 23.4614 4.81909 14.8288 13.426 9.04158C22.0329 3.22219 33.4178 0.3125 47.5807 0.3125C61.2619 0.3125 71.4906 2.37018 78.267 6.48555C85.0433 10.6009 89.3468 16.7579 91.1774 24.9565L91.4182 26.548H77.8816L77.6407 25.2941C76.3561 21.1144 73.4979 17.3688 69.0659 14.0572C64.634 10.7456 57.6168 9.08981 48.0143 9.08981C37.4804 9.08981 29.3392 11.5172 23.5905 16.3721C17.8419 21.1948 14.9676 27.3357 14.9676 34.7948V33.6855C14.9676 42.1735 17.9061 48.6359 23.7832 53.0728C29.6925 57.4775 37.7695 59.6799 48.0143 59.6799C58.1628 59.6799 65.4369 58.1527 69.8367 55.0983C74.2365 52.0439 76.886 48.2179 77.7853 43.6203L78.0261 42.2699H91.4664L91.2737 43.9097C90.1497 52.0118 86.1674 58.1045 79.3268 62.1877C72.4862 66.2709 61.9524 68.3125 47.7253 68.3125C33.3054 68.3125 21.8242 65.3546 13.2815 59.4387C4.77091 53.5229 0.515625 44.9385 0.515625 33.6855Z" fill="white"/>
<path d="M170.926 66.8657H157.486V21.3877C157.486 20.4874 157.502 19.748 157.534 19.1692C157.598 18.5584 157.663 17.9957 157.727 17.4813H157.438C157.181 17.9314 156.844 18.4458 156.426 19.0246C156.009 19.6033 155.334 20.3106 154.403 21.1465L115.527 66.8657H99.8227V1.75931H113.263V46.4175C113.263 47.2212 113.247 47.8803 113.215 48.3948C113.183 48.9092 113.135 49.5683 113.07 50.3721H113.359C113.681 49.7612 114.034 49.2789 114.419 48.9253C114.805 48.5395 115.415 47.9125 116.25 47.0444L155.27 1.75931H170.926V66.8657Z" fill="white"/>
<path d="M187.183 66.8657V1.75931H247.929V11.5494H200.671V25.3423H227.07C236.03 25.3423 242.534 27.1588 246.58 30.7919C250.659 34.425 252.698 39.3924 252.698 45.6941C252.698 52.3494 250.643 57.5418 246.532 61.2714C242.421 65.0009 235.918 66.8657 227.022 66.8657H187.183ZM200.671 33.2033V58.4742H223.698C229.415 58.4742 233.429 57.4132 235.741 55.2912C238.086 53.1371 239.258 50.0184 239.258 45.9352C239.258 42.077 238.086 38.9905 235.741 36.6756C233.429 34.3607 229.415 33.2033 223.698 33.2033H200.671Z" fill="white"/>
<path d="M332.929 66.8657H319.489V21.3877C319.489 20.4874 319.505 19.748 319.537 19.1692C319.601 18.5584 319.665 17.9957 319.729 17.4813H319.44C319.183 17.9314 318.846 18.4458 318.429 19.0246C318.011 19.6033 317.337 20.3106 316.405 21.1465L277.53 66.8657H261.825V1.75931H275.266V46.4175C275.266 47.2212 275.25 47.8803 275.217 48.3948C275.185 48.9092 275.137 49.5683 275.073 50.3721H275.362C275.683 49.7612 276.036 49.2789 276.422 48.9253C276.807 48.5395 277.417 47.9125 278.252 47.0444L317.273 1.75931H332.929V66.8657Z" fill="white"/>
<path d="M349.186 66.8657V1.75931H393.408C403.011 1.75931 410.06 3.75269 414.556 7.73945C419.085 11.6941 421.349 17.2723 421.349 24.4742C421.349 31.1938 419.117 36.6756 414.653 40.9196C410.189 45.1636 403.027 47.2855 393.168 47.2855H362.674V66.8657H349.186ZM362.674 38.6529H389.458C396.235 38.6529 401.004 37.4151 403.766 34.9395C406.528 32.4638 407.909 29.0718 407.909 24.7636C407.909 20.3588 406.528 16.999 403.766 14.6841C401.004 12.3371 396.235 11.1636 389.458 11.1636H362.674V38.6529Z" fill="white"/>
<path d="M501.387 66.8657H487.946V21.3877C487.946 20.4874 487.962 19.748 487.995 19.1692C488.059 18.5584 488.123 17.9957 488.187 17.4813H487.898C487.641 17.9314 487.304 18.4458 486.887 19.0246C486.469 19.6033 485.795 20.3106 484.863 21.1465L445.988 66.8657H430.283V1.75931H443.723V46.4175C443.723 47.2212 443.707 47.8803 443.675 48.3948C443.643 48.9092 443.595 49.5683 443.531 50.3721H443.82C444.141 49.7612 444.494 49.2789 444.88 48.9253C445.265 48.5395 445.875 47.9125 446.71 47.0444L485.73 1.75931H501.387V66.8657Z" fill="white"/>
<path d="M506.66 66.8657L544.717 1.61463H559.987L597.996 66.8657H582.34L555.652 16.4203C554.913 14.9092 554.255 13.7357 553.677 12.8997C553.131 12.0316 552.585 11.1153 552.039 10.1508H551.798C551.252 11.1475 550.706 12.0799 550.16 12.948C549.646 13.7839 549.004 14.9574 548.233 16.4685L521.642 66.8657H506.66ZM522.509 50.8543L527.326 42.3664H577.041L581.81 50.8543H522.509Z" fill="white"/>
<path d="M603.414 66.8657V1.75931H616.902V27.6572H665.075V1.75931H678.516V66.8657H665.075V38.7494H616.902V66.8657H603.414Z" fill="white"/>
</svg>
