<svg width="48" height="48" viewBox="0 0 48 48" fill="none" xmlns="http://www.w3.org/2000/svg">
<path fill-rule="evenodd" clip-rule="evenodd" d="M48 0H0V48H48V0ZM25.7727 16.2773C23.4346 17.2565 18.7785 19.2748 11.7843 22.3122C10.6653 22.7719 10.0658 23.2115 10.0058 23.6511C9.91733 24.3945 10.8478 24.6833 12.103 25.0728C12.265 25.1231 12.4324 25.175 12.6037 25.2298C13.8426 25.6295 15.4813 26.0891 16.3405 26.1091C17.1199 26.1291 17.9792 25.8093 18.9384 25.1499C25.4729 20.7336 28.8301 18.4954 29.05 18.4555C29.2098 18.4155 29.4097 18.3755 29.5495 18.4954C29.6894 18.6153 29.6894 18.8551 29.6694 18.9151C29.5741 19.3123 25.6757 22.9314 23.9017 24.5783C23.4447 25.0026 23.1286 25.296 23.0549 25.3697C22.8675 25.5626 22.6767 25.7453 22.4932 25.921C21.3461 27.0189 20.4853 27.8428 22.5354 29.1865C23.4673 29.8018 24.219 30.3146 24.9593 30.8197C25.8539 31.43 26.7318 32.029 27.8909 32.7835C28.164 32.9629 28.4254 33.1488 28.6805 33.3303C29.676 34.0385 30.5742 34.6775 31.6878 34.582C32.3272 34.5221 32.9867 33.9226 33.3264 32.1241C34.1257 27.8876 35.6844 18.6753 36.0441 14.8784C36.0841 14.5587 36.0441 14.1391 36.0042 13.9392C35.9642 13.7394 35.9042 13.4796 35.6644 13.2798C35.3647 13.04 34.9251 13 34.7252 13C33.826 13.02 32.4271 13.4996 25.7727 16.2773Z" fill="#D43DFF"/>
</svg>
